<svg xmlns="http://www.w3.org/2000/svg" xmlns:xlink="http://www.w3.org/1999/xlink" viewBox="0 0 745.08 745.08"><defs><style>.cls-1{fill:#d2a784;}.cls-2{fill:url(#linear-gradient);}.cls-3{fill:url(#linear-gradient-2);}.cls-4{fill:url(#linear-gradient-3);}.cls-5{fill:url(#linear-gradient-4);}.cls-6{fill:url(#linear-gradient-5);}</style><linearGradient id="linear-gradient" x1="343.28" y1="145.98" x2="301.25" y2="194.7" gradientUnits="userSpaceOnUse"><stop offset="0" stop-color="#d2a784"/><stop offset="1" stop-color="#9c7556"/></linearGradient><linearGradient id="linear-gradient-2" x1="592.93" y1="167.73" x2="546.12" y2="204.03" xlink:href="#linear-gradient"/><linearGradient id="linear-gradient-3" x1="585.19" y1="417.75" x2="562.27" y2="357.57" xlink:href="#linear-gradient"/><linearGradient id="linear-gradient-4" x1="252.86" y1="367.71" x2="192.79" y2="359.96" xlink:href="#linear-gradient"/><linearGradient id="linear-gradient-5" x1="252.9" y1="360.55" x2="193.67" y2="352.91" xlink:href="#linear-gradient"/></defs><g id="Layer_2" data-name="Layer 2"><g id="graphics"><path class="cls-1" d="M739.05,305.46l-3.45-18.95L717,281.44a255,255,0,0,0-120.48-3.39,241.59,241.59,0,0,0-36.37-59.89c40.93-10.92,89.3-15.33,146.4-10.49C645.64,84.72,518.8,0,372.54,0S99.44,84.72,38.5,207.67c57.11-4.84,105.48-.43,146.41,10.49A241.87,241.87,0,0,0,148.53,278a255.07,255.07,0,0,0-120.47,3.4L9.48,286.51,6,305.46a375.82,375.82,0,0,0-6,67.08C0,578,167.12,745.08,372.54,745.08S745.08,578,745.08,372.54A375.82,375.82,0,0,0,739.05,305.46ZM554.47,372.54c0,68.54-39,130.71-98.18,161.54A194,194,0,0,1,554,359Q554.48,365.75,554.47,372.54ZM372.54,61.13c79.27,0,153.36,29.19,210.27,81.57a390.69,390.69,0,0,0-81.9,23.64,241.91,241.91,0,0,0-256.74,0,390.61,390.61,0,0,0-81.91-23.64C219.17,90.32,293.26,61.13,372.54,61.13ZM435,201.77a291.53,291.53,0,0,0-62.49,57.37,291.77,291.77,0,0,0-62.49-57.37,180.54,180.54,0,0,1,125,0ZM191.1,359A193.7,193.7,0,0,1,282,476.31a194.73,194.73,0,0,1,6.75,57.77c-59.19-30.83-98.18-93-98.18-161.54Q190.61,365.75,191.1,359ZM372.54,683.94c-171.71,0-311.41-139.69-311.41-311.4a316.61,316.61,0,0,1,2.1-36.32,192.86,192.86,0,0,1,68.82.85,244,244,0,0,0-2.58,35.47,240.92,240.92,0,0,0,49.92,147.59,244.82,244.82,0,0,0,126.16,86.12l31.05,8.89,7.16-31.51A255,255,0,0,0,206.5,298a181.41,181.41,0,0,1,39.68-56.24c65,34,104,87.4,126.36,139.48C395,329.2,433.87,275.81,498.9,241.8A181.53,181.53,0,0,1,538.58,298,255.07,255.07,0,0,0,401.31,583.63l7.16,31.51,31.06-8.89a244.79,244.79,0,0,0,126.15-86.12A240.85,240.85,0,0,0,615.6,372.54,245.43,245.43,0,0,0,613,337.07a192.86,192.86,0,0,1,68.82-.85,316.6,316.6,0,0,1,2.09,36.32C683.94,544.25,544.25,683.94,372.54,683.94Z"/><path class="cls-2" d="M372.54,190.61c4.47,0,8.9.2,13.31.53-2.15-15.82-21.59-40.5-50.06-58.82a243.12,243.12,0,0,0-91.62,34c28.56,12.13,48.6,22.69,65.88,35.43A180.76,180.76,0,0,1,372.54,190.61Z"/><path class="cls-3" d="M560.17,218.16a375.62,375.62,0,0,1,76.72-11.78c-10-17.24-29.93-40.4-54.08-63.68a390.69,390.69,0,0,0-81.9,23.64C519.31,177.9,547.54,204.62,560.17,218.16Z"/><path class="cls-4" d="M554.47,372.54a181,181,0,0,1-16.42,75.2c19.65-14.7,47.87-25.33,73.61-31.43A245.52,245.52,0,0,0,613,337.07c-19.85,3.86-42,11-59.06,21.93Q554.48,365.75,554.47,372.54Z"/><path class="cls-5" d="M191,360.46c0-.48,0-1,.08-1.46C191.05,359.47,191,360,191,360.46Z"/><path class="cls-6" d="M254.6,417.3c-.63-25,5.79-53.45,16.15-74.69A255,255,0,0,0,206.5,298c-9.26,19.48-12.46,35.1-15.4,61A193.73,193.73,0,0,1,254.6,417.3Z"/></g></g></svg>